<mxfile host="app.diagrams.net" agent="Mozilla/5.0 (Windows NT 10.0; Win64; x64) AppleWebKit/537.36 (KHTML, like Gecko) Chrome/133.0.0.0 Safari/537.36" version="26.0.6">
  <diagram name="Página-1" id="4Ny5_3RxDCJveUC87pZp">
    <mxGraphModel dx="840" dy="418" grid="1" gridSize="10" guides="1" tooltips="1" connect="1" arrows="1" fold="1" page="1" pageScale="1" pageWidth="827" pageHeight="1169" math="0" shadow="0">
      <root>
        <mxCell id="0" />
        <mxCell id="1" parent="0" />
        <mxCell id="WdkzXNTWqGoaiv-2nKPi-7" value="Categoria" style="swimlane;whiteSpace=wrap;html=1;" vertex="1" parent="1">
          <mxGeometry x="514" y="260" width="200" height="200" as="geometry">
            <mxRectangle x="90" y="260" width="140" height="30" as="alternateBounds" />
          </mxGeometry>
        </mxCell>
        <mxCell id="WdkzXNTWqGoaiv-2nKPi-15" value="- id : String&lt;div&gt;- nome: String&lt;/div&gt;" style="text;html=1;align=center;verticalAlign=middle;resizable=0;points=[];autosize=1;strokeColor=none;fillColor=none;" vertex="1" parent="WdkzXNTWqGoaiv-2nKPi-7">
          <mxGeometry x="50" y="80" width="100" height="40" as="geometry" />
        </mxCell>
        <mxCell id="WdkzXNTWqGoaiv-2nKPi-9" value="Peça" style="swimlane;whiteSpace=wrap;html=1;startSize=23;" vertex="1" parent="1">
          <mxGeometry x="314" y="10" width="200" height="200" as="geometry">
            <mxRectangle x="90" y="260" width="140" height="30" as="alternateBounds" />
          </mxGeometry>
        </mxCell>
        <mxCell id="WdkzXNTWqGoaiv-2nKPi-13" value="- id : String&lt;div&gt;- name : String&lt;/div&gt;&lt;div&gt;- description : String&lt;/div&gt;&lt;div&gt;- imageUrl : String&lt;/div&gt;&lt;div&gt;-&amp;nbsp;promotionalPrice : String&lt;/div&gt;&lt;div&gt;-&amp;nbsp;normalPrice : String&lt;/div&gt;&lt;div&gt;-&amp;nbsp;installment : String&lt;/div&gt;" style="text;html=1;align=center;verticalAlign=middle;resizable=0;points=[];autosize=1;strokeColor=none;fillColor=none;" vertex="1" parent="WdkzXNTWqGoaiv-2nKPi-9">
          <mxGeometry x="20" y="45" width="160" height="110" as="geometry" />
        </mxCell>
        <mxCell id="WdkzXNTWqGoaiv-2nKPi-10" value="Marca" style="swimlane;whiteSpace=wrap;html=1;startSize=23;" vertex="1" parent="1">
          <mxGeometry x="114" y="260" width="200" height="200" as="geometry">
            <mxRectangle x="90" y="260" width="140" height="30" as="alternateBounds" />
          </mxGeometry>
        </mxCell>
        <mxCell id="WdkzXNTWqGoaiv-2nKPi-14" value="- id : String&lt;div&gt;- nome: String&lt;/div&gt;" style="text;html=1;align=center;verticalAlign=middle;resizable=0;points=[];autosize=1;strokeColor=none;fillColor=none;" vertex="1" parent="WdkzXNTWqGoaiv-2nKPi-10">
          <mxGeometry x="50" y="80" width="100" height="40" as="geometry" />
        </mxCell>
        <mxCell id="WdkzXNTWqGoaiv-2nKPi-11" value="" style="endArrow=none;html=1;rounded=0;entryX=0;entryY=1;entryDx=0;entryDy=0;exitX=0;exitY=0;exitDx=0;exitDy=0;" edge="1" parent="1" source="WdkzXNTWqGoaiv-2nKPi-10" target="WdkzXNTWqGoaiv-2nKPi-9">
          <mxGeometry width="50" height="50" relative="1" as="geometry">
            <mxPoint x="390" y="300" as="sourcePoint" />
            <mxPoint x="440" y="250" as="targetPoint" />
            <Array as="points" />
          </mxGeometry>
        </mxCell>
        <mxCell id="WdkzXNTWqGoaiv-2nKPi-12" value="" style="endArrow=none;html=1;rounded=0;entryX=1;entryY=0;entryDx=0;entryDy=0;exitX=1;exitY=1;exitDx=0;exitDy=0;" edge="1" parent="1" source="WdkzXNTWqGoaiv-2nKPi-9" target="WdkzXNTWqGoaiv-2nKPi-7">
          <mxGeometry width="50" height="50" relative="1" as="geometry">
            <mxPoint x="390" y="300" as="sourcePoint" />
            <mxPoint x="440" y="250" as="targetPoint" />
          </mxGeometry>
        </mxCell>
      </root>
    </mxGraphModel>
  </diagram>
</mxfile>
